<svg width="635" height="635" viewBox="0 0 635 635" fill="none" xmlns="http://www.w3.org/2000/svg">
<rect width="635" height="635" rx="317.5" fill="#BDC5D1"/>
<path d="M151 220.03L317.281 125.5L386.591 165.519V357.328L220.922 453.871L151 413.501V332.037L219.723 291.764L220.099 373.657L317.167 317.046L317.264 194.599L151 294.205V220.03Z" fill="white"/>
<path d="M284.385 237.822L245.828 260.085L245.88 271.156L284.447 248.893L284.385 237.822Z" fill="white"/>
<path d="M284.385 271.154L245.828 293.417L245.88 304.479L284.447 282.216L284.385 271.154Z" fill="white"/>
<path d="M284.385 305.494L245.828 327.757L245.88 338.819L284.447 316.556L284.385 305.494Z" fill="white"/>
<path d="M246 468.5L411.785 371.662L411.943 265.836L484 307V413.5L318 509.5L246 468.5Z" fill="white"/>
<path d="M411.925 180.143V238.049L483.562 279.687V221.501L411.925 180.143Z" fill="white"/>
<path d="M300 436.5L371 478.5" stroke="white" stroke-width="0.3" stroke-miterlimit="10"/>
<path d="M354 405.5L426 446.5" stroke="white" stroke-width="0.3" stroke-miterlimit="10"/>
<path d="M412 371.5L484 413.5" stroke="white" stroke-width="0.3" stroke-miterlimit="10"/>
<path d="M412 315.5L483 356.5" stroke="white" stroke-width="0.3" stroke-miterlimit="10"/>
</svg>
